# xmcd
#
# Track frame offsets:
# 150
# 14212
# 26287
# 39657
# 52042
# 64142
# 77285
# 88405
# 100637
# 116160
# 129715
# 142885
# 158855
# 171177
# 185607
# 196057
# 209597
# 222057
# 237960
# 249227
# 260995
# 275522
# 286695
# 296970
#
# Disc length: 4159 seconds
#
#
# Revision: 0
# Processed by: cddbd v1.5.1PL2 Copyright (c) Steve Scherf et al.
# Submitted via: FreeRIP 2.60 
#
DISCID=6c103d18
DTITLE=Mitsias-Galani - Megales Epityxies
DYEAR=1900
DGENRE=Ethnic
TTITLE0=Auta ta xeria
TTITLE1=Ta galazia sou grammata
TTITLE2=Apopse fthinoporiase
TTITLE3=Agapi mesa stin kardia
TTITLE4=Stin eleusina mia fora
TTITLE5=Broxi kai simera
TTITLE6=Koitaxe na deis
TTITLE7=Xasapiko saranta
TTITLE8=Mi xtipas
TTITLE9=An m'agapas fila stauro
TTITLE10=Ti na poume ti
TTITLE11=Tha yparxo thes de thes
TTITLE12=Pou na bro ena zeibekiko
TTITLE13=Mia kyriaki tou marti
TTITLE14=Fonazoun oi geitonoi
TTITLE15=Sygnomi pou s'agapisa poli
TTITLE16=Kykladitiko
TTITLE17=H pikra simera
TTITLE18=Matia mou
TTITLE19=Oi kolasmenoi
TTITLE20=Stou kairou ta remata
TTITLE21=Ti na tin kano ti zoi
TTITLE22=Ax ligaki
TTITLE23=Itan mia fora ki enan kairo
EXTD=
EXTT0=
EXTT1=
EXTT2=
EXTT3=
EXTT4=
EXTT5=
EXTT6=
EXTT7=
EXTT8=
EXTT9=
EXTT10=
EXTT11=
EXTT12=
EXTT13=
EXTT14=
EXTT15=
EXTT16=
EXTT17=
EXTT18=
EXTT19=
EXTT20=
EXTT21=
EXTT22=
EXTT23=
PLAYORDER=
